<svg width="508" height="508" viewBox="0 0 508 508" fill="none" xmlns="http://www.w3.org/2000/svg">
<g clip-path="url(#clip0)" filter="url(#filter0_d)">
<rect width="500" height="500" transform="translate(4)" fill="#141414"/>
<path d="M461.882 176.51C469.821 180.128 472.548 184.662 470.064 190.112C466.77 197.34 456.239 205.848 438.47 215.637C424.184 223.436 407.83 225.57 389.406 222.039C383.836 221.074 378.977 219.647 374.83 217.757C370.801 215.921 366.553 213.627 362.083 210.875C350.581 203.773 335.756 195.8 317.607 186.957C291.488 205.962 271.915 220.652 258.887 231.027L286.759 242.871C292.22 245.646 299.168 248.454 307.603 251.297L326.104 257.796C329.821 259.061 332.298 259.904 333.537 260.325C338.611 262.065 341.336 264.094 341.71 266.411C342.504 270.636 341.928 274.881 339.985 279.147C338.041 283.412 336.071 286.95 334.074 289.761C332.132 292.453 330.007 294.919 327.698 297.158C322.575 302.121 317.992 305.112 313.95 306.132C305.23 308.311 293.405 305.998 278.476 299.195C275.633 297.899 272.962 296.539 270.463 295.114L218.2 266.145C199.195 283.67 182.389 301.552 167.78 319.793C156.624 333.597 137.835 334.478 111.413 322.437C89.6118 312.502 78.0118 301.062 76.6127 288.119C76.1644 283.765 76.8792 280.156 78.757 277.291C80.6349 274.426 83.3264 271.503 86.8315 268.522C90.5092 265.476 95.1842 261.811 100.857 257.528L145.776 225.841C145.302 225.625 143.756 224.778 141.139 223.299C138.64 221.874 136.82 220.687 135.679 219.738C132.966 217.213 131.25 214.07 130.532 210.309C129.813 206.547 130.156 203.126 131.56 200.046C134.314 194.003 138.17 190.251 143.129 188.79C148.087 187.33 152.57 187.226 156.577 188.48C160.703 189.788 165.045 191.409 169.601 193.342L184.692 199.79C215.844 179.788 238.18 165.785 251.701 157.781C221.345 146.522 192.653 141.817 165.625 143.666C158.07 144.23 151.668 145.247 146.419 146.718C141.288 148.243 137.419 148.412 134.812 147.224C132.206 146.036 130.116 144.655 128.545 143.08C127.145 141.441 125.973 139.618 125.026 137.613C123.059 133.139 122.858 129.184 124.424 125.748C126.043 122.193 128.476 119.367 131.722 117.269C170.281 92.6293 205.265 82.7441 236.673 87.6133C247.749 89.3698 259.152 92.921 270.882 98.2666C319.697 120.513 358.712 137.578 387.925 149.46C417.257 161.396 433.307 167.781 436.076 168.613L453.738 173.657C456.679 174.425 459.394 175.376 461.882 176.51Z" fill="white"/>
<path d="M236.962 314.475C237.404 314.71 237.426 315.2 237.03 315.945C236.348 317.228 234.567 318.414 231.688 319.502L229.87 320.075C224.397 321.748 219.766 322.338 215.976 321.845C213.628 321.534 212.239 320.752 211.809 319.497C211.465 318.447 211.486 317.06 211.871 315.336L212.332 313.271L206.483 313.639L203.167 313.734C199.252 313.775 196.535 313.393 195.018 312.586C193.072 311.552 191.851 309.938 191.354 307.745C190.868 305.663 191.124 303.685 192.121 301.808C193.104 299.96 194.719 298.704 196.965 298.04C200.176 297.093 204.517 296.967 209.986 297.664C215.149 298.338 219.055 299.38 221.704 300.788C222.6 301.265 222.814 301.945 222.344 302.828C222.022 303.435 221.662 303.828 221.266 304.006C220.871 304.185 220.223 304.239 219.323 304.167L216.121 303.898C211.4 303.459 207.68 303.631 204.963 304.416C204.196 304.627 203.691 304.961 203.449 305.416C203.207 305.871 203.451 306.293 204.182 306.682C204.9 307.063 206.98 307.178 210.423 307.027L212.68 306.926C216.193 306.742 218.847 307.126 220.64 308.08C222.158 308.887 222.809 310.091 222.594 311.694C222.528 312.118 222.45 312.546 222.363 312.977C222.282 313.395 222.22 313.778 222.177 314.126C222.066 314.934 222.107 315.39 222.3 315.492C222.507 315.602 222.848 315.66 223.323 315.665C223.806 315.656 224.348 315.617 224.951 315.548C225.575 315.473 226.228 315.377 226.908 315.262L230.48 314.586C233.684 313.918 235.845 313.881 236.962 314.475ZM253.356 328.873C252.689 330.128 252.721 330.951 253.452 331.339C255.245 332.293 258.222 332.319 262.383 331.416L263.195 331.237C264.708 331.087 265.81 331.195 266.5 331.561C267.203 331.935 267.59 332.274 267.659 332.576C267.742 332.886 267.663 333.268 267.421 333.723C266.878 334.744 265.785 335.552 264.141 336.147C261.598 337.202 258.534 337.855 254.949 338.108C250.79 338.409 247.475 337.903 245.006 336.59C243.281 335.673 242.708 334.139 243.286 331.986C243.426 331.424 243.59 330.9 243.776 330.415C244.225 329.238 244.407 328.547 244.321 328.343C244.235 328.138 243.925 327.99 243.389 327.9C242.874 327.803 242.214 327.762 241.41 327.777C240.627 327.785 239.735 327.833 238.733 327.919C233.393 328.443 230.328 328.733 229.537 328.79C227.646 328.917 226.453 328.849 225.956 328.585C225.459 328.321 225.025 327.957 224.652 327.493C224.293 327.037 224.018 326.555 223.828 326.047C223.457 324.947 223.466 324.032 223.855 323.3C226.078 319.12 228.932 315.948 232.419 313.785C234.755 312.32 237.022 311.65 239.221 311.775C240.345 311.824 241.425 312.123 242.459 312.673C244.349 313.678 244.964 314.802 244.304 316.043C243.901 316.802 242.792 317.805 240.978 319.053L239.708 319.944C238.82 320.551 238.353 320.913 238.308 321.031C238.17 321.489 238.247 321.795 238.536 321.949C238.854 322.117 239.447 322.132 240.318 321.993L245.633 321.183L248.241 320.871C251.197 320.602 253.193 320.743 254.228 321.293C254.779 321.587 255.166 322.075 255.386 322.759C255.802 324.006 255.853 324.927 255.537 325.52C255.435 325.713 255.289 325.937 255.101 326.191C254.927 326.452 254.735 326.73 254.524 327.025L253.925 327.954C253.707 328.263 253.518 328.569 253.356 328.873ZM292.663 346.906C292.318 347.554 290.802 348.359 288.115 349.319C285.372 350.285 282.85 350.917 280.55 351.216C276.045 351.9 271.592 351.638 267.191 350.43C265.518 349.983 264.012 349.404 262.674 348.692C261.349 347.988 260.308 347.284 259.55 346.58C258.798 345.897 258.169 345.182 257.664 344.436C257.179 343.682 256.814 342.922 256.567 342.154C256.321 341.386 256.172 340.634 256.121 339.899C256.017 338.463 256.207 337.29 256.691 336.38C257.175 335.469 257.704 334.724 258.278 334.144C258.838 333.557 259.462 333.049 260.151 332.618C262.609 331.023 266.198 330.365 270.916 330.644C274.651 330.843 277.987 331.458 280.925 332.489C282.193 332.933 283.075 333.287 283.572 333.551C284.068 333.815 284.453 334.091 284.725 334.377C285.019 334.657 285.242 334.953 285.395 335.264C285.734 335.957 285.72 336.649 285.354 337.339C284.987 338.029 284.459 338.589 283.77 339.019C283.089 339.435 282.362 339.703 281.59 339.824C280.089 340.052 278.676 339.814 277.351 339.11C275.544 338.149 274.179 337.122 273.256 336.029C272.287 335.886 271.315 336.051 270.339 336.522C269.532 336.908 268.993 337.355 268.722 337.866C268.458 338.363 268.308 338.911 268.272 339.511C268.257 340.105 268.357 340.698 268.573 341.291C269.058 342.575 269.942 343.558 271.225 344.241C274.205 345.825 278.515 346.09 284.154 345.036L286.819 344.568C289.612 344.107 291.43 344.1 292.271 344.548C293.127 345.002 293.257 345.788 292.663 346.906ZM311.447 343.329C310.871 343.448 310.29 343.493 309.703 343.464C309.124 343.421 308.545 343.246 307.966 342.938C307.386 342.63 306.879 342.236 306.443 341.757C306.008 341.278 305.682 340.759 305.465 340.202C304.992 338.995 305.064 337.812 305.68 336.653C306.626 334.873 308.82 334.341 312.263 335.056C313.431 335.288 314.34 335.577 314.988 335.921C315.636 336.266 316.079 336.599 316.315 336.919C316.573 337.233 316.743 337.563 316.825 337.907C316.99 338.596 316.94 339.189 316.676 339.686C316.419 340.169 316.123 340.577 315.786 340.911C315.463 341.253 315.077 341.578 314.629 341.889C314.181 342.199 313.684 342.484 313.139 342.743C312.595 343.002 312.031 343.197 311.447 343.329ZM294.118 363.341C292.783 363.321 291.535 363.206 290.373 362.995C289.203 362.798 288.136 362.443 287.17 361.929C286.218 361.423 285.346 360.668 284.553 359.662C283.782 358.65 283.201 357.545 282.812 356.347C281.949 353.676 282.079 351.286 283.201 349.175C284.236 347.23 285.864 345.565 288.087 344.181C290.11 342.938 292.269 342.139 294.563 341.785C296.858 341.43 298.709 341.626 300.116 342.374C302.13 343.445 302.906 344.583 302.442 345.788C302.3 346.155 302.108 346.566 301.866 347.021C301.624 347.476 301.235 347.942 300.699 348.418C300.184 348.887 299.596 349.327 298.936 349.737C298.296 350.14 297.619 350.515 296.905 350.86C296.211 351.199 295.557 351.497 294.943 351.755C293.763 352.242 292.857 352.566 292.224 352.725C291.974 353.194 292.069 353.864 292.509 354.734C292.922 355.555 293.356 356.087 293.811 356.329C294.28 356.579 294.884 356.758 295.622 356.867C296.374 356.984 297.18 357.032 298.04 357.012C298.914 356.999 299.825 356.934 300.771 356.818C301.732 356.709 302.685 356.579 303.633 356.428L308.993 355.483C311.077 355.192 312.587 355.297 313.525 355.795C313.898 355.994 314.107 356.282 314.154 356.66C314.221 357.033 314.16 357.398 313.969 357.757C313.778 358.115 313.335 358.517 312.639 358.961C311.95 359.391 311.087 359.816 310.049 360.238C309.024 360.667 307.871 361.071 306.59 361.451C305.308 361.832 303.965 362.161 302.56 362.441C301.155 362.72 299.727 362.943 298.276 363.109C296.846 363.269 295.46 363.346 294.118 363.341ZM315.654 372.111C313.977 372.104 312.338 371.958 310.737 371.673C309.158 371.382 307.775 370.921 306.588 370.29C305.402 369.659 304.35 368.41 303.432 366.541C302.573 367.624 301.739 368.711 300.928 369.802C300.097 370.9 299.26 371.924 298.419 372.874C297.577 373.825 296.714 374.666 295.829 375.399C294.93 376.125 293.983 376.657 292.989 376.995C290.811 377.73 288.48 377.438 285.997 376.118C285.611 375.912 285.37 375.599 285.276 375.177C285.113 374.418 285.253 373.722 285.695 373.09C286.13 372.472 286.898 371.66 288 370.653C289.102 369.646 290.39 368.57 291.866 367.426C293.334 366.295 294.937 365.112 296.673 363.877L302.049 360.205C302.127 359.326 302.317 358.604 302.617 358.039C302.918 357.473 303.316 356.959 303.809 356.496C304.303 356.033 304.855 355.645 305.464 355.331C306.874 354.577 308.061 354.456 309.027 354.97C309.207 355.065 309.382 355.185 309.553 355.329C316.424 351.125 320.357 348.739 321.349 348.17L323.434 346.995C327.224 344.993 330.236 344.188 332.469 344.579C333.228 344.717 333.945 344.966 334.621 345.325C335.297 345.685 335.724 346.213 335.903 346.909C336.095 347.613 335.919 348.475 335.376 349.496C333.829 352.407 330.422 354.887 325.156 356.936L316.607 360.035C315.105 360.564 313.629 361.142 312.181 361.77C312.357 362.536 312.536 363.215 312.717 363.807C312.905 364.385 313.123 364.739 313.372 364.872C313.634 365.011 314.057 365.13 314.642 365.228C315.234 365.313 315.924 365.379 316.713 365.427C317.515 365.482 318.381 365.518 319.31 365.534C320.247 365.537 321.166 365.521 322.069 365.488C324.056 365.412 325.531 365.267 326.494 365.053C328.174 364.69 329.345 364.684 330.007 365.037C330.49 365.293 330.783 365.591 330.886 365.929C331.054 366.478 331.006 367.001 330.742 367.498C330.485 367.981 329.853 368.521 328.846 369.118C327.859 369.708 326.665 370.223 325.263 370.663C323.882 371.097 322.36 371.447 320.697 371.713C319.034 371.979 317.353 372.111 315.654 372.111ZM331.527 373.41C331.19 374.045 331.442 374.586 332.283 375.033C333.994 375.943 338.038 375.359 344.416 373.282L347.502 372.321C349.579 371.709 350.839 371.521 351.28 371.756C351.722 371.99 352.074 372.275 352.339 372.61C352.603 372.946 352.804 373.3 352.941 373.674C353.222 374.443 353.216 375.103 352.923 375.655C352.637 376.193 352.256 376.76 351.779 377.356C351.324 377.946 350.756 378.582 350.075 379.264C348.813 380.539 346.91 382.138 344.366 384.059L342.55 385.429L347.762 384.113L358.243 381.775C359.267 381.612 360.021 381.659 360.504 381.916C361.552 382.473 361.809 383.256 361.273 384.263C360.723 385.297 359.339 386.269 357.122 387.178C356.436 387.469 355.735 387.706 355.017 387.891L347.878 389.537L334.078 392.525C332.848 392.809 331.905 393.051 331.25 393.251C330.3 393.807 329.573 394.209 329.071 394.455C328.575 394.722 328.068 395.01 327.55 395.318C327.024 395.641 326.543 395.898 326.105 396.089C325.157 396.506 324.401 396.564 323.835 396.263C323.242 395.948 322.798 395.402 322.503 394.626C321.959 393.186 321.874 392.114 322.248 391.411C322.622 390.707 323.252 389.989 324.137 389.256C325.015 388.537 326.083 387.743 327.342 386.873L336.031 381.114C332.908 381.896 330.582 382.278 329.051 382.26C327.528 382.229 326.301 382.09 325.371 381.843C324.447 381.617 323.523 381.258 322.598 380.767C321.688 380.283 320.99 379.664 320.506 378.911C320.014 378.172 319.709 377.364 319.592 376.487C319.376 374.762 319.804 372.893 320.875 370.879C322.012 368.74 323.672 366.915 325.856 365.404C327.976 363.913 330.215 362.997 332.572 362.658C335.07 362.287 337.264 362.604 339.154 363.609C341.044 364.614 341.597 365.855 340.812 367.331C340.32 368.255 338.804 369.21 336.263 370.195C333.729 371.166 332.151 372.237 331.527 373.41Z" fill="white"/>
</g>
<defs>
<filter id="filter0_d" x="0" y="0" width="508" height="508" filterUnits="userSpaceOnUse" color-interpolation-filters="sRGB">
<feFlood flood-opacity="0" result="BackgroundImageFix"/>
<feColorMatrix in="SourceAlpha" type="matrix" values="0 0 0 0 0 0 0 0 0 0 0 0 0 0 0 0 0 0 127 0"/>
<feOffset dy="4"/>
<feGaussianBlur stdDeviation="2"/>
<feColorMatrix type="matrix" values="0 0 0 0 0 0 0 0 0 0 0 0 0 0 0 0 0 0 0.25 0"/>
<feBlend mode="normal" in2="BackgroundImageFix" result="effect1_dropShadow"/>
<feBlend mode="normal" in="SourceGraphic" in2="effect1_dropShadow" result="shape"/>
</filter>
<clipPath id="clip0">
<rect width="500" height="500" fill="white" transform="translate(4)"/>
</clipPath>
</defs>
</svg>
